<svg viewBox="0 0 20 20" fill="none" xmlns="http://www.w3.org/2000/svg">
<path d="M16.25 11.875V9.6875C16.25 8.94158 15.9537 8.22621 15.4262 7.69876C14.8988 7.17132 14.1834 6.875 13.4375 6.875H12.1875C11.9389 6.875 11.7004 6.77623 11.5246 6.60041C11.3488 6.4246 11.25 6.18614 11.25 5.9375V4.6875C11.25 3.94158 10.9537 3.22621 10.4262 2.69876C9.89879 2.17132 9.18342 1.875 8.4375 1.875H6.875M6.875 12.5H13.125M6.875 15H10M8.75 1.875H4.6875C4.17 1.875 3.75 2.295 3.75 2.8125V17.1875C3.75 17.705 4.17 18.125 4.6875 18.125H15.3125C15.83 18.125 16.25 17.705 16.25 17.1875V9.375C16.25 7.38588 15.4598 5.47822 14.0533 4.0717C12.6468 2.66518 10.7391 1.875 8.75 1.875V1.875Z" stroke="currentColor" stroke-width="1.5" stroke-linecap="round" stroke-linejoin="round"/>
</svg>
