<svg viewBox="0 0 20 20" fill="none" xmlns="http://www.w3.org/2000/svg">
<path d="M3.568 17.376C5.728 17.376 7.408 15.648 9.856 10.88C10.704 10.736 11.616 10.624 12.544 10.56C12.496 10.752 12.48 10.944 12.48 11.136C12.48 11.44 12.528 11.792 12.592 12.112H12.8C12.736 11.808 12.688 11.456 12.688 11.136C12.688 10.928 12.704 10.736 12.752 10.56C13.856 10.48 14.56 10.08 14.56 9.52C14.56 9.216 14.336 9.024 13.968 9.024C13.36 9.024 12.816 9.584 12.592 10.352C11.664 10.416 10.784 10.528 9.984 10.656C11.488 7.728 12.624 5.808 13.424 4.848C15.232 4.992 15.968 5.04 16.544 5.04C17.968 5.04 18.944 4.432 18.944 3.552C18.944 2.896 18.32 2.448 17.408 2.448C15.952 2.448 14.608 3.168 13.344 4.64C12.784 4.592 12.208 4.576 11.584 4.576C7.648 4.576 4.4 6.48 4.4 8.784C4.4 9.632 4.912 10.176 5.712 10.176C6.96 10.176 7.968 8.832 7.968 7.152H7.76C7.744 8.72 6.832 9.968 5.712 9.968C5.056 9.968 4.624 9.504 4.624 8.784C4.624 6.592 7.776 4.784 11.584 4.784C12.16 4.784 12.688 4.8 13.168 4.832C12.4 5.792 11.264 7.728 9.712 10.704C8.816 10.88 8.032 11.056 7.296 11.344L7.36 11.536C7.952 11.312 8.736 11.104 9.6 10.928C7.232 15.488 5.6 17.168 3.568 17.168C2.528 17.168 1.808 16.592 1.808 15.776C1.808 15.216 2 14.752 2.432 14.272L2.272 14.16C1.808 14.656 1.584 15.184 1.584 15.776C1.584 16.72 2.4 17.376 3.568 17.376ZM16.544 4.832C15.728 4.832 14.672 4.752 13.6 4.656C14.784 3.312 16.032 2.656 17.408 2.656C18.176 2.656 18.72 3.024 18.72 3.552C18.72 4.304 17.824 4.832 16.544 4.832ZM12.8 10.352C13.008 9.696 13.456 9.232 13.968 9.232C14.192 9.232 14.336 9.344 14.336 9.52C14.336 9.968 13.744 10.272 12.8 10.352Z" fill="currentColor"/>
<path d="M9.856 10.88L9.73881 10.1899L9.39333 10.2485L9.23328 10.5603L9.856 10.88ZM12.544 10.56L13.2231 10.7298L13.4567 9.79539L12.4958 9.86166L12.544 10.56ZM12.592 12.112L11.9056 12.2493L12.0181 12.812H12.592V12.112ZM12.8 12.112V12.812H13.6627L13.485 11.9678L12.8 12.112ZM12.752 10.56L12.7014 9.86183L12.2071 9.89765L12.0767 10.3758L12.752 10.56ZM12.592 10.352L12.6402 11.0503L13.1273 11.0167L13.264 10.548L12.592 10.352ZM9.984 10.656L9.36134 10.3362L8.72984 11.5656L10.0946 11.3472L9.984 10.656ZM13.424 4.848L13.4796 4.15021L13.1183 4.12143L12.8862 4.39987L13.424 4.848ZM13.344 4.64L13.2842 5.33744L13.6415 5.36806L13.8751 5.09603L13.344 4.64ZM7.968 7.152H8.668V6.452H7.968V7.152ZM7.76 7.152V6.452H7.06711L7.06004 7.14486L7.76 7.152ZM13.168 4.832L13.7146 5.26929L14.5519 4.22271L13.2146 4.13355L13.168 4.832ZM9.712 10.704L9.84692 11.3909L10.1771 11.326L10.3327 11.0277L9.712 10.704ZM7.296 11.344L7.04092 10.6921L6.42162 10.9345L6.63192 11.5654L7.296 11.344ZM7.36 11.536L6.69592 11.7574L6.92631 12.4485L7.60772 12.1907L7.36 11.536ZM9.6 10.928L10.2212 11.2506L10.8969 9.94944L9.46028 10.2421L9.6 10.928ZM2.432 14.272L2.95231 14.7403L3.48155 14.1522L2.83342 13.6985L2.432 14.272ZM2.272 14.16L2.67342 13.5865L2.17579 13.2382L1.76081 13.6818L2.272 14.16ZM13.6 4.656L13.0747 4.19328L12.1615 5.22998L13.5376 5.35321L13.6 4.656ZM12.8 10.352L12.1327 10.1404L11.8165 11.1379L12.8591 11.0495L12.8 10.352ZM3.568 18.076C4.87757 18.076 6.00965 17.5354 7.10674 16.4031C8.17821 15.2972 9.24856 13.5957 10.4787 11.1997L9.23328 10.5603C8.01544 12.9323 7.02179 14.4788 6.10126 15.4289C5.20635 16.3526 4.41843 16.676 3.568 16.676V18.076ZM9.97319 11.5701C10.7992 11.4299 11.6881 11.3207 12.5922 11.2583L12.4958 9.86166C11.5439 9.92731 10.6088 10.0421 9.73881 10.1899L9.97319 11.5701ZM11.8649 10.3902C11.7991 10.6535 11.78 10.9057 11.78 11.136H13.18C13.18 10.9823 13.1929 10.8505 13.2231 10.7298L11.8649 10.3902ZM11.78 11.136C11.78 11.5039 11.8369 11.9057 11.9056 12.2493L13.2784 11.9747C13.2191 11.6783 13.18 11.3761 13.18 11.136H11.78ZM12.592 12.812H12.8V11.412H12.592V12.812ZM13.485 11.9678C13.4276 11.6952 13.388 11.3936 13.388 11.136H11.988C11.988 11.5184 12.0444 11.9208 12.115 12.2562L13.485 11.9678ZM13.388 11.136C13.388 10.9596 13.4022 10.8364 13.4273 10.7442L12.0767 10.3758C12.0058 10.6356 11.988 10.8964 11.988 11.136H13.388ZM12.8026 11.2582C13.4154 11.2138 13.9813 11.0777 14.4181 10.8273C14.8577 10.5753 15.26 10.1414 15.26 9.52H13.86C13.86 9.45857 13.9103 9.50471 13.7219 9.61271C13.5307 9.72227 13.1926 9.82623 12.7014 9.86183L12.8026 11.2582ZM15.26 9.52C15.26 9.18308 15.1286 8.85505 14.8532 8.62283C14.5915 8.40213 14.2673 8.324 13.968 8.324V9.724C14.0367 9.724 14.0085 9.74186 13.9508 9.69317C13.9213 9.66831 13.8955 9.63463 13.8786 9.59634C13.8622 9.5591 13.86 9.53067 13.86 9.52H15.26ZM13.968 8.324C12.9074 8.324 12.1838 9.25169 11.92 10.156L13.264 10.548C13.4482 9.91631 13.8126 9.724 13.968 9.724V8.324ZM12.5438 9.65366C11.5906 9.7194 10.6893 9.83425 9.87341 9.96479L10.0946 11.3472C10.8787 11.2217 11.7374 11.1126 12.6402 11.0503L12.5438 9.65366ZM10.6067 10.9758C12.1135 8.04239 13.2179 6.18871 13.9618 5.29613L12.8862 4.39987C12.0301 5.42729 10.8625 7.41361 9.36134 10.3362L10.6067 10.9758ZM13.3684 5.54579C15.1682 5.68913 15.9344 5.74 16.544 5.74V4.34C16.0016 4.34 15.2958 4.29487 13.4796 4.15021L13.3684 5.54579ZM16.544 5.74C17.3451 5.74 18.0838 5.57052 18.6472 5.2207C19.2234 4.86295 19.644 4.28905 19.644 3.552H18.244C18.244 3.69495 18.1766 3.86504 17.9088 4.03129C17.6282 4.20548 17.1669 4.34 16.544 4.34V5.74ZM19.644 3.552C19.644 2.97532 19.3597 2.49682 18.9265 2.18553C18.5085 1.88519 17.9703 1.748 17.408 1.748V3.148C17.7577 3.148 17.9875 3.23481 18.1095 3.32247C18.2163 3.39918 18.244 3.47268 18.244 3.552H19.644ZM17.408 1.748C15.6874 1.748 14.1647 2.6098 12.8129 4.18397L13.8751 5.09603C15.0513 3.7262 16.2166 3.148 17.408 3.148V1.748ZM13.4038 3.94256C12.8168 3.89224 12.2192 3.876 11.584 3.876V5.276C12.1968 5.276 12.7512 5.29176 13.2842 5.33744L13.4038 3.94256ZM11.584 3.876C9.51167 3.876 7.58955 4.37572 6.16214 5.21203C4.75443 6.03679 3.7 7.27754 3.7 8.784H5.1C5.1 7.98646 5.66957 7.12321 6.86986 6.41997C8.05045 5.72827 9.72033 5.276 11.584 5.276V3.876ZM3.7 8.784C3.7 9.34825 3.87225 9.88078 4.24651 10.278C4.62489 10.6796 5.14722 10.876 5.712 10.876V9.476C5.47678 9.476 5.34311 9.40037 5.26549 9.31798C5.18375 9.23121 5.1 9.06774 5.1 8.784H3.7ZM5.712 10.876C6.60532 10.876 7.36064 10.393 7.86874 9.71301C8.37633 9.03373 8.668 8.12694 8.668 7.152H7.268C7.268 7.85706 7.05567 8.46226 6.74726 8.87499C6.43936 9.28703 6.06668 9.476 5.712 9.476V10.876ZM7.968 6.452H7.76V7.852H7.968V6.452ZM7.06004 7.14486C7.05334 7.80087 6.85856 8.35915 6.58417 8.73588C6.30937 9.11318 5.99264 9.268 5.712 9.268V10.668C6.55136 10.668 7.25063 10.1988 7.71583 9.56012C8.18144 8.92085 8.45066 8.07113 8.45996 7.15914L7.06004 7.14486ZM5.712 9.268C5.55679 9.268 5.4794 9.21787 5.43655 9.17141C5.38869 9.11951 5.324 9.00508 5.324 8.784H3.924C3.924 9.28292 4.07531 9.76049 4.40745 10.1206C4.7446 10.4861 5.21121 10.668 5.712 10.668V9.268ZM5.324 8.784C5.324 8.04951 5.86076 7.2375 7.02464 6.569C8.16625 5.9133 9.78206 5.484 11.584 5.484V4.084C9.57794 4.084 7.71376 4.5587 6.32736 5.355C4.96324 6.1385 3.924 7.32649 3.924 8.784H5.324ZM11.584 5.484C12.1474 5.484 12.6596 5.49966 13.1214 5.53045L13.2146 4.13355C12.7164 4.10034 12.1726 4.084 11.584 4.084V5.484ZM12.6214 4.39471C11.8045 5.41584 10.6396 7.41152 9.09133 10.3803L10.3327 11.0277C11.8884 8.04448 12.9955 6.16816 13.7146 5.26929L12.6214 4.39471ZM9.57708 10.0171C8.67698 10.1939 7.83978 10.3795 7.04092 10.6921L7.55108 11.9959C8.22422 11.7325 8.95502 11.5661 9.84692 11.3909L9.57708 10.0171ZM6.63192 11.5654L6.69592 11.7574L8.02408 11.3146L7.96008 11.1226L6.63192 11.5654ZM7.60772 12.1907C8.15077 11.9852 8.89439 11.7861 9.73972 11.6139L9.46028 10.2421C8.57761 10.4219 7.75323 10.6388 7.11228 10.8813L7.60772 12.1907ZM8.97877 10.6054C7.80123 12.873 6.83915 14.3575 5.95496 15.2712C5.09367 16.1613 4.34913 16.468 3.568 16.468V17.868C4.81887 17.868 5.90633 17.3347 6.96104 16.2448C7.99285 15.1785 9.03077 13.543 10.2212 11.2506L8.97877 10.6054ZM3.568 16.468C3.17216 16.468 2.89522 16.3583 2.73313 16.2297C2.58169 16.1095 2.508 15.9594 2.508 15.776H1.108C1.108 16.4086 1.39431 16.9545 1.86287 17.3263C2.32078 17.6897 2.92384 17.868 3.568 17.868V16.468ZM2.508 15.776C2.508 15.4146 2.61755 15.1122 2.95231 14.7403L1.91169 13.8037C1.38245 14.3918 1.108 15.0174 1.108 15.776H2.508ZM2.83342 13.6985L2.67342 13.5865L1.87058 14.7335L2.03058 14.8455L2.83342 13.6985ZM1.76081 13.6818C1.19401 14.2877 0.884 14.9811 0.884 15.776H2.284C2.284 15.3869 2.42199 15.0243 2.78319 14.6382L1.76081 13.6818ZM0.884 15.776C0.884 16.4675 1.19001 17.0651 1.69882 17.4751C2.19705 17.8765 2.85773 18.076 3.568 18.076V16.676C3.11027 16.676 2.77895 16.5475 2.57718 16.3849C2.38599 16.2309 2.284 16.0285 2.284 15.776H0.884ZM16.544 4.132C15.763 4.132 14.7355 4.05488 13.6624 3.95879L13.5376 5.35321C14.6085 5.44912 15.693 5.532 16.544 5.532V4.132ZM14.1253 5.11872C15.2192 3.87695 16.2898 3.356 17.408 3.356V1.956C15.7742 1.956 14.3488 2.74705 13.0747 4.19328L14.1253 5.11872ZM17.408 3.356C17.689 3.356 17.8697 3.42446 17.958 3.48457C17.9997 3.51295 18.0139 3.53434 18.0173 3.54014C18.0192 3.54344 18.02 3.54458 18.02 3.552H19.42C19.42 3.01713 19.1345 2.59202 18.746 2.32743C18.3703 2.07154 17.895 1.956 17.408 1.956V3.356ZM18.02 3.552C18.02 3.60865 17.9968 3.72954 17.7569 3.87073C17.51 4.01606 17.0985 4.132 16.544 4.132V5.532C17.2695 5.532 17.946 5.38394 18.4671 5.07727C18.9952 4.76645 19.42 4.24735 19.42 3.552H18.02ZM13.4673 10.5636C13.5436 10.3229 13.6547 10.1491 13.76 10.0459C13.863 9.9449 13.9355 9.932 13.968 9.932V8.532C13.0017 8.532 12.378 9.36679 12.1327 10.1404L13.4673 10.5636ZM13.968 9.932C13.9666 9.932 13.95 9.93191 13.9223 9.92375C13.8944 9.91553 13.8515 9.89794 13.805 9.86162C13.7572 9.82423 13.7117 9.77162 13.6795 9.70482C13.6473 9.63817 13.636 9.57316 13.636 9.52H15.036C15.036 9.22114 14.9044 8.94386 14.667 8.75838C14.447 8.58655 14.1886 8.532 13.968 8.532V9.932ZM13.636 9.52C13.636 9.37884 13.7432 9.37595 13.5923 9.45648C13.4432 9.5361 13.1645 9.6186 12.7409 9.6545L12.8591 11.0495C13.3795 11.0054 13.8688 10.8959 14.2517 10.6915C14.6328 10.488 15.036 10.1092 15.036 9.52H13.636Z" fill="currentColor"/>
</svg>
