<svg  viewBox="0 0 22 21" fill="none" xmlns="http://www.w3.org/2000/svg">
<path d="M10.9646 2.08923C6.06976 2.08725 2.10522 6.04981 2.10522 10.9407C2.10522 14.8082 4.58529 18.0958 8.03917 19.3032C8.5043 19.42 8.43305 19.0894 8.43305 18.8638V17.3298C5.74714 17.6446 5.63827 15.8671 5.45816 15.5702C5.09397 14.9487 4.23297 14.7904 4.49028 14.4935C5.10188 14.1788 5.72536 14.5727 6.44781 15.6395C6.97034 16.4134 7.98968 16.2828 8.50628 16.1541C8.6191 15.689 8.86058 15.2734 9.1931 14.9507C6.4102 14.4519 5.25033 12.7537 5.25033 10.7348C5.25033 9.75506 5.57296 8.85448 6.20633 8.12808C5.80256 6.9306 6.24394 5.90532 6.30332 5.75292C7.45329 5.64999 8.64879 6.57631 8.74182 6.64954C9.39499 6.47338 10.1412 6.38036 10.9764 6.38036C11.8157 6.38036 12.5638 6.47734 13.223 6.65548C13.4466 6.48526 14.555 5.68958 15.6238 5.78657C15.6812 5.93897 16.1127 6.9405 15.7327 8.12214C16.374 8.85052 16.7006 9.75902 16.7006 10.7408C16.7006 12.7636 15.5328 14.4638 12.742 14.9547C12.981 15.1898 13.1708 15.4701 13.3003 15.7794C13.4298 16.0886 13.4963 16.4206 13.4961 16.7558V18.9826C13.5119 19.1607 13.4961 19.3369 13.793 19.3369C17.2983 18.1552 19.8219 14.8438 19.8219 10.9426C19.8219 6.04981 15.8554 2.08923 10.9646 2.08923V2.08923Z" fill="currentColor"/>
</svg>
