<svg  viewBox="0 0 21 21" fill="none" xmlns="http://www.w3.org/2000/svg" preserveAspectRatio="xMidYMid meet">

<path d="M9.79892 3.82195C9.91768 3.70334 10.0787 3.63672 10.2465 3.63672C10.4144 3.63672 10.5753 3.70334 10.6941 3.82195L18.0328 11.1607C18.0908 11.2229 18.1607 11.2728 18.2384 11.3074C18.3161 11.342 18.4 11.3607 18.485 11.3622C18.5701 11.3637 18.6545 11.348 18.7334 11.3162C18.8123 11.2843 18.8839 11.2369 18.9441 11.1767C19.0042 11.1166 19.0516 11.045 19.0835 10.9661C19.1153 10.8872 19.131 10.8028 19.1295 10.7177C19.128 10.6327 19.1094 10.5488 19.0747 10.4711C19.0401 10.3934 18.9902 10.3235 18.928 10.2655L11.5901 2.92678C11.4137 2.75034 11.2042 2.61037 10.9737 2.51488C10.7431 2.41939 10.496 2.37024 10.2465 2.37024C9.99698 2.37024 9.74989 2.41939 9.51935 2.51488C9.28882 2.61037 9.07935 2.75034 8.90291 2.92678L1.56419 10.2655C1.44887 10.385 1.3851 10.545 1.38662 10.7111C1.38814 10.8772 1.45483 11.036 1.57232 11.1534C1.68981 11.2708 1.8487 11.3373 2.01477 11.3387C2.18084 11.34 2.3408 11.2761 2.4602 11.1607L9.79892 3.82195V3.82195Z" fill="currentColor"/>
<path d="M10.2466 5.16636L17.1368 12.0566C17.1622 12.082 17.1875 12.1056 17.2137 12.1293V17.3635C17.2137 18.2376 16.5043 18.9469 15.6303 18.9469H12.7801C12.6121 18.9469 12.451 18.8802 12.3322 18.7614C12.2134 18.6426 12.1467 18.4815 12.1467 18.3136V14.5133C12.1467 14.3453 12.08 14.1842 11.9612 14.0654C11.8424 13.9467 11.6813 13.8799 11.5133 13.8799H8.9798C8.81182 13.8799 8.65072 13.9467 8.53194 14.0654C8.41316 14.1842 8.34643 14.3453 8.34643 14.5133V18.3136C8.34643 18.4815 8.2797 18.6426 8.16092 18.7614C8.04213 18.8802 7.88103 18.9469 7.71305 18.9469H4.86286C4.4429 18.9469 4.04015 18.7801 3.7432 18.4832C3.44625 18.1862 3.27942 17.7834 3.27942 17.3635V12.1293C3.30569 12.1058 3.33132 12.0816 3.35627 12.0566L10.2466 5.16467V5.16636Z" fill="currentColor"/>

</svg>
