<svg viewBox="0 0 20 20" fill="none" xmlns="http://www.w3.org/2000/svg">
<path fill-rule="evenodd" clip-rule="evenodd" d="M7.85746 7.47419H10.9525V9.01585C11.3983 8.12919 12.5416 7.33252 14.2591 7.33252C17.5516 7.33252 18.3333 9.09752 18.3333 12.3359V18.3334H15V13.0734C15 11.2292 14.5541 10.1892 13.4191 10.1892C11.845 10.1892 11.1908 11.31 11.1908 13.0725V18.3334H7.85746V7.47419V7.47419ZM2.14163 18.1917H5.47496V7.33252H2.14163V18.1917V18.1917ZM5.95246 3.79169C5.95258 4.07108 5.89717 4.34772 5.78945 4.60551C5.68172 4.8633 5.52384 5.09711 5.32496 5.29335C4.92196 5.69387 4.37647 5.91806 3.80829 5.91669C3.24112 5.91631 2.69689 5.69269 2.29329 5.29419C2.09514 5.09728 1.93778 4.86321 1.83025 4.60538C1.72271 4.34755 1.66711 4.07104 1.66663 3.79169C1.66663 3.22752 1.89163 2.68752 2.29413 2.28919C2.69736 1.89015 3.24183 1.66644 3.80913 1.66669C4.37746 1.66669 4.92246 1.89085 5.32496 2.28919C5.72663 2.68752 5.95246 3.22752 5.95246 3.79169Z" fill="currentColor"/>
</svg>
