<svg viewBox="0 0 22 21" fill="none" xmlns="http://www.w3.org/2000/svg">
<path d="M6.63635 3.11255H14.5983C15.1676 3.11878 15.7296 3.24108 16.2501 3.47196C16.7705 3.70283 17.2383 4.03744 17.625 4.45531C18.0124 4.87395 18.3112 5.36649 18.5036 5.90341C18.696 6.44033 18.7781 7.01057 18.7448 7.57996V13.0929C18.7781 13.6623 18.696 14.2325 18.5036 14.7694C18.3112 15.3063 18.0124 15.7989 17.625 16.2175C17.2387 16.635 16.7714 16.9693 16.2516 17.2002C15.7318 17.4311 15.1704 17.5536 14.6017 17.5603H6.63635C4.1704 17.567 2.50842 15.5613 2.50842 13.0962V7.58334C2.50842 5.11824 4.1704 3.11255 6.63635 3.11255Z" fill="currentColor"/>
<path opacity="0.4" d="M15.4023 7.80884L11.7997 10.7089C11.469 10.9686 11.0607 11.1097 10.6402 11.1097C10.2197 11.1097 9.8114 10.9686 9.4807 10.7089L5.84766 7.80884" stroke="white" stroke-width="1.5" stroke-miterlimit="10" stroke-linecap="round" stroke-linejoin="round"/>
</svg>
