<svg viewBox="0 0 21 21" fill="none" xmlns="http://www.w3.org/2000/svg">
<path fill-rule="evenodd" clip-rule="evenodd" d="M8.9418 3.78648V8.02588C8.94166 8.69775 8.67464 9.34205 8.19949 9.81707L6.19211 11.8244C7.67595 11.7199 9.16068 12.0153 10.4915 12.6799C11.9847 13.4268 13.6952 13.6173 15.3161 13.217L15.5568 13.1571L12.2176 9.81707C11.7425 9.34205 11.4755 8.69775 11.4753 8.02588V3.78648C10.6317 3.73278 9.78545 3.73278 8.9418 3.78648V3.78648ZM12.7421 3.90302C12.9042 3.90449 13.0608 3.84371 13.1794 3.73319C13.2981 3.62268 13.3699 3.47085 13.38 3.309C13.39 3.14714 13.3376 2.98759 13.2336 2.86322C13.1295 2.73885 12.9817 2.65913 12.8206 2.64049C11.9541 2.53241 11.0817 2.47854 10.2086 2.47919C9.33538 2.479 8.46303 2.53287 7.59651 2.64049C7.43542 2.65913 7.28761 2.73885 7.18354 2.86322C7.07948 2.98759 7.02708 3.14714 7.03715 3.309C7.04722 3.47085 7.11898 3.62268 7.23766 3.73319C7.35634 3.84371 7.51289 3.90449 7.67505 3.90302V8.02588C7.67476 8.36173 7.5411 8.68372 7.30347 8.92105L1.98902 14.2363C0.620932 15.6053 1.22644 18.0155 3.23129 18.3575C5.49962 18.746 7.83128 18.947 10.2086 18.947C12.5867 18.947 14.9175 18.7451 17.1858 18.3584C19.1898 18.0155 19.797 15.6053 18.4272 14.2363L13.1136 8.92189C12.9959 8.80428 12.9024 8.66461 12.8387 8.51086C12.7749 8.35712 12.7421 8.19232 12.7421 8.02588V3.90302Z" fill="currentColor"/>
</svg>
