<svg viewBox="0 0 21 21" fill="none" xmlns="http://www.w3.org/2000/svg">
<path d="M10.7362 2.47919C10.9042 2.47919 11.0653 2.54592 11.1841 2.6647C11.3029 2.78348 11.3696 2.94458 11.3696 3.11256V5.01269C11.3696 5.18067 11.3029 5.34177 11.1841 5.46056C11.0653 5.57934 10.9042 5.64607 10.7362 5.64607C10.5682 5.64607 10.4071 5.57934 10.2883 5.46056C10.1696 5.34177 10.1028 5.18067 10.1028 5.01269V3.11256C10.1028 2.94458 10.1696 2.78348 10.2883 2.6647C10.4071 2.54592 10.5682 2.47919 10.7362 2.47919ZM6.93595 10.7131C6.93595 9.70518 7.33633 8.73857 8.04902 8.02589C8.76171 7.3132 9.72832 6.91282 10.7362 6.91282C11.7441 6.91282 12.7107 7.3132 13.4234 8.02589C14.1361 8.73857 14.5365 9.70518 14.5365 10.7131C14.5365 11.721 14.1361 12.6876 13.4234 13.4003C12.7107 14.1129 11.7441 14.5133 10.7362 14.5133C9.72832 14.5133 8.76171 14.1129 8.04902 13.4003C7.33633 12.6876 6.93595 11.721 6.93595 10.7131V10.7131ZM16.5582 5.78625C16.6701 5.66619 16.731 5.50738 16.7281 5.34329C16.7252 5.17921 16.6587 5.02265 16.5427 4.9066C16.4266 4.79056 16.2701 4.72409 16.106 4.72119C15.9419 4.7183 15.7831 4.7792 15.663 4.89108L14.3194 6.23384C14.2589 6.29224 14.2106 6.36211 14.1774 6.43936C14.1442 6.51662 14.1266 6.59973 14.1259 6.68382C14.1251 6.76792 14.1411 6.85133 14.1729 6.92919C14.2047 7.00704 14.2517 7.07778 14.3112 7.13728C14.3706 7.19677 14.4413 7.24384 14.5191 7.27572C14.5969 7.3076 14.6803 7.32367 14.7644 7.32298C14.8485 7.32229 14.9317 7.30486 15.0089 7.2717C15.0862 7.23854 15.1561 7.19032 15.2146 7.12986L16.5582 5.7871V5.78625ZM18.9701 10.7131C18.9701 10.8811 18.9034 11.0422 18.7846 11.1609C18.6658 11.2797 18.5047 11.3465 18.3367 11.3465H16.4366C16.2686 11.3465 16.1075 11.2797 15.9887 11.1609C15.8699 11.0422 15.8032 10.8811 15.8032 10.7131C15.8032 10.5451 15.8699 10.384 15.9887 10.2652C16.1075 10.1464 16.2686 10.0797 16.4366 10.0797H18.3367C18.5047 10.0797 18.6658 10.1464 18.7846 10.2652C18.9034 10.384 18.9701 10.5451 18.9701 10.7131ZM15.663 16.5351C15.7831 16.6469 15.9419 16.7079 16.106 16.705C16.2701 16.7021 16.4266 16.6356 16.5427 16.5195C16.6587 16.4035 16.7252 16.2469 16.7281 16.0829C16.731 15.9188 16.6701 15.76 16.5582 15.6399L15.2154 14.2963C15.157 14.2358 15.0872 14.1875 15.0099 14.1543C14.9327 14.121 14.8496 14.1035 14.7655 14.1027C14.6814 14.102 14.5979 14.118 14.5201 14.1498C14.4422 14.1816 14.3715 14.2286 14.312 14.288C14.2525 14.3475 14.2054 14.4182 14.1736 14.496C14.1417 14.5738 14.1256 14.6572 14.1263 14.7413C14.127 14.8254 14.1444 14.9085 14.1776 14.9858C14.2107 15.0631 14.259 15.133 14.3194 15.1915L15.6622 16.5351H15.663ZM10.7362 15.7801C10.9042 15.7801 11.0653 15.8468 11.1841 15.9656C11.3029 16.0844 11.3696 16.2455 11.3696 16.4135V18.3136C11.3696 18.4816 11.3029 18.6427 11.1841 18.7615C11.0653 18.8802 10.9042 18.947 10.7362 18.947C10.5682 18.947 10.4071 18.8802 10.2883 18.7615C10.1696 18.6427 10.1028 18.4816 10.1028 18.3136V16.4135C10.1028 16.2455 10.1696 16.0844 10.2883 15.9656C10.4071 15.8468 10.5682 15.7801 10.7362 15.7801ZM7.15383 15.1915C7.26915 15.072 7.33292 14.9119 7.3314 14.7459C7.32988 14.5798 7.26319 14.421 7.1457 14.3036C7.02821 14.1862 6.86932 14.1197 6.70325 14.1183C6.53718 14.1169 6.37722 14.1809 6.25782 14.2963L4.91422 15.6391C4.79878 15.7585 4.73487 15.9184 4.73623 16.0845C4.73759 16.2506 4.80413 16.4094 4.92151 16.5269C5.03889 16.6444 5.19772 16.7111 5.36378 16.7126C5.52985 16.7142 5.68988 16.6504 5.80939 16.5351L7.15299 15.1923L7.15383 15.1915ZM5.6692 10.7131C5.6692 10.8811 5.60247 11.0422 5.48369 11.1609C5.36491 11.2797 5.20381 11.3465 5.03582 11.3465H3.1357C2.96771 11.3465 2.80661 11.2797 2.68783 11.1609C2.56905 11.0422 2.50232 10.8811 2.50232 10.7131C2.50232 10.5451 2.56905 10.384 2.68783 10.2652C2.80661 10.1464 2.96771 10.0797 3.1357 10.0797H5.03582C5.20381 10.0797 5.36491 10.1464 5.48369 10.2652C5.60247 10.384 5.6692 10.5451 5.6692 10.7131ZM6.25782 7.12986C6.37788 7.24174 6.53669 7.30264 6.70078 7.29975C6.86486 7.29685 7.02142 7.23038 7.13747 7.11434C7.25351 6.99829 7.31999 6.84173 7.32288 6.67764C7.32578 6.51356 7.26487 6.35475 7.15299 6.23468L5.81023 4.89108C5.69083 4.77565 5.53087 4.71173 5.3648 4.7131C5.19873 4.71446 5.03984 4.781 4.92235 4.89838C4.80486 5.01575 4.73817 5.17458 4.73665 5.34065C4.73513 5.50672 4.7989 5.66674 4.91422 5.78625L6.25697 7.12986H6.25782Z" fill="currentColor"/>
</svg>
