<svg viewBox="0 0 22 21" fill="none" xmlns="http://www.w3.org/2000/svg">
<path opacity="0.25" d="M18.5917 6.9128C19.0139 13.2466 14.3692 18.3136 8.45771 18.3136C6.42085 18.3136 4.38399 18.0406 2.78598 17.2753C2.42 17.1001 2.56305 16.6119 2.96796 16.585C4.93571 16.4546 6.56409 15.9847 7.61321 14.9356C10.1468 12.4021 10.569 11.5576 11.2147 8.19979C11.0701 7.79788 10.9912 7.36455 10.9912 6.9128C10.9912 4.81398 12.6927 3.11255 14.7914 3.11255C16.0736 3.11255 17.2074 3.74746 17.8956 4.72002L19.3458 4.51286C19.7071 4.46124 19.9594 4.8614 19.7568 5.16508L18.5917 6.9128Z" fill="currentColor"/>
<path d="M7.6133 14.9355C3.03914 13.4108 2.25012 7.75685 3.0718 4.80759C3.16829 4.46128 3.61852 4.45948 3.79999 4.7698C5.20311 7.16924 7.87104 8.50889 11.2148 8.19975C16.4806 8.19975 15.2138 17.469 7.6133 14.9355Z" fill="currentColor"/>
</svg>
