<svg viewBox="0 0 21 21" fill="none" xmlns="http://www.w3.org/2000/svg">
<path fill-rule="evenodd" clip-rule="evenodd" d="M3.57709 3.11255C2.70219 3.11255 1.99365 3.82193 1.99365 4.69599V15.7801C1.99365 16.452 2.26057 17.0964 2.7357 17.5715C3.21082 18.0466 3.85523 18.3136 4.52716 18.3136H17.1947C16.5227 18.3136 15.8783 18.0466 15.4032 17.5715C14.9281 17.0964 14.6612 16.452 14.6612 15.7801V4.69599C14.6612 3.82109 13.9518 3.11255 13.0777 3.11255H3.57709ZM10.2275 8.81293C10.0596 8.81293 9.89846 8.87966 9.77968 8.99844C9.66089 9.11723 9.59416 9.27833 9.59416 9.44631C9.59416 9.61429 9.66089 9.77539 9.77968 9.89417C9.89846 10.013 10.0596 10.0797 10.2275 10.0797H11.4943C11.6623 10.0797 11.8234 10.013 11.9422 9.89417C12.0609 9.77539 12.1277 9.61429 12.1277 9.44631C12.1277 9.27833 12.0609 9.11723 11.9422 8.99844C11.8234 8.87966 11.6623 8.81293 11.4943 8.81293H10.2275ZM9.59416 6.9128C9.59416 6.74482 9.66089 6.58372 9.77968 6.46494C9.89846 6.34616 10.0596 6.27943 10.2275 6.27943H11.4943C11.6623 6.27943 11.8234 6.34616 11.9422 6.46494C12.0609 6.58372 12.1277 6.74482 12.1277 6.9128C12.1277 7.08079 12.0609 7.24189 11.9422 7.36067C11.8234 7.47945 11.6623 7.54618 11.4943 7.54618H10.2275C10.0596 7.54618 9.89846 7.47945 9.77968 7.36067C9.66089 7.24189 9.59416 7.08079 9.59416 6.9128ZM5.16053 11.3464C4.99255 11.3464 4.83145 11.4132 4.71267 11.5319C4.59389 11.6507 4.52716 11.8118 4.52716 11.9798C4.52716 12.1478 4.59389 12.3089 4.71267 12.4277C4.83145 12.5465 4.99255 12.6132 5.16053 12.6132H11.4943C11.6623 12.6132 11.8234 12.5465 11.9422 12.4277C12.0609 12.3089 12.1277 12.1478 12.1277 11.9798C12.1277 11.8118 12.0609 11.6507 11.9422 11.5319C11.8234 11.4132 11.6623 11.3464 11.4943 11.3464H5.16053ZM4.52716 14.5133C4.52716 14.3453 4.59389 14.1842 4.71267 14.0655C4.83145 13.9467 4.99255 13.8799 5.16053 13.8799H11.4943C11.6623 13.8799 11.8234 13.9467 11.9422 14.0655C12.0609 14.1842 12.1277 14.3453 12.1277 14.5133C12.1277 14.6813 12.0609 14.8424 11.9422 14.9612C11.8234 15.08 11.6623 15.1467 11.4943 15.1467H5.16053C4.99255 15.1467 4.83145 15.08 4.71267 14.9612C4.59389 14.8424 4.52716 14.6813 4.52716 14.5133ZM5.16053 6.27943C4.99255 6.27943 4.83145 6.34616 4.71267 6.46494C4.59389 6.58372 4.52716 6.74482 4.52716 6.9128V9.44631C4.52716 9.79593 4.81091 10.0797 5.16053 10.0797H7.69404C7.86202 10.0797 8.02312 10.013 8.1419 9.89417C8.26068 9.77539 8.32741 9.61429 8.32741 9.44631V6.9128C8.32741 6.74482 8.26068 6.58372 8.1419 6.46494C8.02312 6.34616 7.86202 6.27943 7.69404 6.27943H5.16053Z" fill="currentColor"/>
<path d="M15.9279 6.27942H17.5113C18.0357 6.27942 18.4614 6.70505 18.4614 7.22948V15.7801C18.4614 16.116 18.3279 16.4382 18.0903 16.6758C17.8528 16.9133 17.5306 17.0468 17.1946 17.0468C16.8586 17.0468 16.5364 16.9133 16.2989 16.6758C16.0613 16.4382 15.9279 16.116 15.9279 15.7801V6.27942Z" fill="black"/>
</svg>
